<svg xmlns="http://www.w3.org/2000/svg" width="310.085" height="57.495" viewBox="0 0 310.085 57.495">
  <g id="Group_20" data-name="Group 20" transform="translate(-771.792 -2704.252)">
    <g id="Group_15" data-name="Group 15" transform="translate(-1561.208 -525.032)">
      <path id="Polygon_7" data-name="Polygon 7" d="M21.4,0l21.4,40.226H0Z" transform="translate(2333 3235.032)" fill="#f7e76a"/>
      <path id="Polygon_8" data-name="Polygon 8" d="M21.542,0,43.083,39.931H0Z" transform="translate(2367.227 3229.285) rotate(59)" fill="#f7e76a"/>
    </g>
    <g id="Group_16" data-name="Group 16" transform="translate(-1307.54 -525.032)">
      <path id="Polygon_7-2" data-name="Polygon 7" d="M21.4,0l21.4,40.226H0Z" transform="translate(2333 3235.032)" fill="#f7e76a"/>
      <path id="Polygon_8-2" data-name="Polygon 8" d="M21.542,0,43.083,39.931H0Z" transform="translate(2367.227 3229.285) rotate(59)" fill="#f7e76a"/>
    </g>
    <g id="Group_17" data-name="Group 17" transform="translate(-1370.957 -525.032)">
      <path id="Polygon_7-3" data-name="Polygon 7" d="M21.4,0l21.4,40.226H0Z" transform="translate(2333 3235.032)" fill="#f7e76a"/>
      <path id="Polygon_8-3" data-name="Polygon 8" d="M21.542,0,43.083,39.931H0Z" transform="translate(2367.227 3229.285) rotate(59)" fill="#f7e76a"/>
    </g>
    <g id="Group_18" data-name="Group 18" transform="translate(-1434.374 -525.032)">
      <path id="Polygon_7-4" data-name="Polygon 7" d="M21.4,0l21.4,40.226H0Z" transform="translate(2333 3235.032)" fill="#f7e76a"/>
      <path id="Polygon_8-4" data-name="Polygon 8" d="M21.542,0,43.083,39.931H0Z" transform="translate(2367.227 3229.285) rotate(59)" fill="#f7e76a"/>
    </g>
    <g id="Group_19" data-name="Group 19" transform="translate(-1497.791 -525.032)">
      <path id="Polygon_7-5" data-name="Polygon 7" d="M21.4,0l21.4,40.226H0Z" transform="translate(2333 3235.032)" fill="#f7e76a"/>
      <path id="Polygon_8-5" data-name="Polygon 8" d="M21.542,0,43.083,39.931H0Z" transform="translate(2367.227 3229.285) rotate(59)" fill="#f7e76a"/>
    </g>
  </g>
</svg>
