<svg xmlns="http://www.w3.org/2000/svg" width="48" height="45" viewBox="0 0 48 45">
  <g id="Group_2" data-name="Group 2" transform="translate(-618 -293)">
    <g id="Rectangle_132" data-name="Rectangle 132" transform="translate(618 299)" fill="#fff" stroke="#644536" stroke-width="1">
      <rect width="48" height="39" rx="7" stroke="none"/>
      <rect x="0.5" y="0.5" width="47" height="38" rx="6.5" fill="none"/>
    </g>
    <g id="Rectangle_134" data-name="Rectangle 134" transform="translate(650 293)" fill="#fff" stroke="#644536" stroke-width="1">
      <rect width="6" height="13" rx="3" stroke="none"/>
      <rect x="0.5" y="0.5" width="5" height="12" rx="2.5" fill="none"/>
    </g>
    <line id="Line_1" data-name="Line 1" x2="47.037" transform="translate(618.367 309.537)" fill="none" stroke="#644536" stroke-width="1"/>
    <g id="Rectangle_135" data-name="Rectangle 135" transform="translate(623 313)" fill="#fff" stroke="#644536" stroke-width="1">
      <rect width="6" height="6" stroke="none"/>
      <rect x="0.5" y="0.5" width="5" height="5" fill="none"/>
    </g>
    <g id="Rectangle_136" data-name="Rectangle 136" transform="translate(639 313)" fill="#fff" stroke="#644536" stroke-width="1">
      <rect width="6" height="6" stroke="none"/>
      <rect x="0.5" y="0.5" width="5" height="5" fill="none"/>
    </g>
    <g id="Rectangle_137" data-name="Rectangle 137" transform="translate(631 313)" fill="#fff" stroke="#644536" stroke-width="1">
      <rect width="6" height="6" stroke="none"/>
      <rect x="0.5" y="0.5" width="5" height="5" fill="none"/>
    </g>
    <g id="Rectangle_138" data-name="Rectangle 138" transform="translate(647 313)" fill="#fff" stroke="#644536" stroke-width="1">
      <rect width="6" height="6" stroke="none"/>
      <rect x="0.5" y="0.5" width="5" height="5" fill="none"/>
    </g>
    <g id="Rectangle_139" data-name="Rectangle 139" transform="translate(655 313)" fill="#fff" stroke="#644536" stroke-width="1">
      <rect width="6" height="6" stroke="none"/>
      <rect x="0.5" y="0.5" width="5" height="5" fill="none"/>
    </g>
    <g id="Rectangle_140" data-name="Rectangle 140" transform="translate(623 321)" fill="#fff" stroke="#644536" stroke-width="1">
      <rect width="6" height="6" stroke="none"/>
      <rect x="0.5" y="0.5" width="5" height="5" fill="none"/>
    </g>
    <g id="Rectangle_141" data-name="Rectangle 141" transform="translate(639 321)" fill="#fff" stroke="#644536" stroke-width="1">
      <rect width="6" height="6" stroke="none"/>
      <rect x="0.5" y="0.5" width="5" height="5" fill="none"/>
    </g>
    <g id="Rectangle_142" data-name="Rectangle 142" transform="translate(631 321)" fill="#fff" stroke="#644536" stroke-width="1">
      <rect width="6" height="6" stroke="none"/>
      <rect x="0.5" y="0.5" width="5" height="5" fill="none"/>
    </g>
    <g id="Rectangle_143" data-name="Rectangle 143" transform="translate(647 321)" fill="#fff" stroke="#644536" stroke-width="1">
      <rect width="6" height="6" stroke="none"/>
      <rect x="0.5" y="0.5" width="5" height="5" fill="none"/>
    </g>
    <g id="Rectangle_144" data-name="Rectangle 144" transform="translate(655 321)" fill="#fff" stroke="#644536" stroke-width="1">
      <rect width="6" height="6" stroke="none"/>
      <rect x="0.5" y="0.5" width="5" height="5" fill="none"/>
    </g>
    <g id="Rectangle_145" data-name="Rectangle 145" transform="translate(623 330)" fill="#fff" stroke="#644536" stroke-width="1">
      <rect width="6" height="5" stroke="none"/>
      <rect x="0.5" y="0.5" width="5" height="4" fill="none"/>
    </g>
    <g id="Rectangle_146" data-name="Rectangle 146" transform="translate(639 330)" fill="#fff" stroke="#644536" stroke-width="1">
      <rect width="6" height="5" stroke="none"/>
      <rect x="0.5" y="0.5" width="5" height="4" fill="none"/>
    </g>
    <g id="Rectangle_147" data-name="Rectangle 147" transform="translate(631 330)" fill="#fff" stroke="#644536" stroke-width="1">
      <rect width="6" height="5" stroke="none"/>
      <rect x="0.5" y="0.5" width="5" height="4" fill="none"/>
    </g>
    <g id="Rectangle_148" data-name="Rectangle 148" transform="translate(647 330)" fill="#fff" stroke="#644536" stroke-width="1">
      <rect width="6" height="5" stroke="none"/>
      <rect x="0.5" y="0.5" width="5" height="4" fill="none"/>
    </g>
    <g id="Rectangle_149" data-name="Rectangle 149" transform="translate(655 330)" fill="#fff" stroke="#644536" stroke-width="1">
      <rect width="6" height="5" stroke="none"/>
      <rect x="0.5" y="0.5" width="5" height="4" fill="none"/>
    </g>
    <g id="Rectangle_150" data-name="Rectangle 150" transform="translate(629 293)" fill="#fff" stroke="#644536" stroke-width="1">
      <rect width="6" height="13" rx="3" stroke="none"/>
      <rect x="0.5" y="0.5" width="5" height="12" rx="2.5" fill="none"/>
    </g>
  </g>
</svg>
